<?xml version="1.0" encoding="utf-8"?>
<!-- Generator: Adobe Illustrator 18.1.1, SVG Export Plug-In . SVG Version: 6.00 Build 0)  -->
<!DOCTYPE svg PUBLIC "-//W3C//DTD SVG 1.1//EN" "http://www.w3.org/Graphics/SVG/1.1/DTD/svg11.dtd">
<svg version="1.1" id="Content" xmlns="http://www.w3.org/2000/svg" xmlns:xlink="http://www.w3.org/1999/xlink" x="0px" y="0px"
	 viewBox="120.4 0 595.3 595.3" enable-background="new 120.4 0 595.3 595.3" xml:space="preserve">
<path fill="#D6D6D6" d="M695.7,257.4c13.7-13.1,6.5-36.2-12.2-39.2l-158.3-25.1c-7.4-1.2-13.8-5.9-17.1-12.7L439.1,35.7
	c-4.2-8.8-12.6-13.1-21.1-13v0c0,0,0,0,0,0c0,0,0,0,0,0v0c-8.4-0.2-16.9,4.2-21.1,13l-69.1,144.7c-3.3,6.8-9.6,11.5-17.1,12.7
	l-158.3,25.1c-18.7,3-25.9,26.1-12.2,39.2l116.2,110.3c5.5,5.2,8,12.7,6.9,20.2l-25,158.3c-3,18.7,16.8,32.7,33.5,23.7l140.9-76.4
	c1.7-0.9,3.5-1.6,5.3-2c1.8,0.5,3.6,1.1,5.3,2l140.9,76.4c16.7,9.1,36.5-5,33.5-23.7l-25-158.3c-1.1-7.4,1.4-15,6.9-20.2
	L695.7,257.4z"/>
</svg>
